<svg xmlns="http://www.w3.org/2000/svg" xmlns:xlink="http://www.w3.org/1999/xlink" width="500" zoomAndPan="magnify" viewBox="0 0 375 374.999991" height="500" preserveAspectRatio="xMidYMid meet" version="1.0"><defs><g/><clipPath id="f6edb54144"><path d="M 186.261719 169.640625 L 206 169.640625 L 206 178.640625 L 186.261719 178.640625 Z M 186.261719 169.640625 " clip-rule="nonzero"/></clipPath><clipPath id="b686dc3b9f"><path d="M 186.261719 199.1875 L 206 199.1875 L 206 209.390625 L 186.261719 209.390625 Z M 186.261719 199.1875 " clip-rule="nonzero"/></clipPath><clipPath id="9bcd601bc4"><path d="M 181.246094 149.824219 L 218.746094 149.824219 L 218.746094 178.324219 L 181.246094 178.324219 Z M 181.246094 149.824219 " clip-rule="nonzero"/></clipPath><clipPath id="2b29c39971"><path d="M 150 159.25 L 181.21875 159.25 L 181.21875 220 L 150 220 Z M 150 159.25 " clip-rule="nonzero"/></clipPath><clipPath id="cddf035a43"><path d="M 163.003906 169.59375 L 183.253906 169.59375 L 183.253906 209.34375 L 163.003906 209.34375 Z M 163.003906 169.59375 " clip-rule="nonzero"/></clipPath><clipPath id="6d31f6fdce"><path d="M 181.242188 199.402344 L 218.742188 199.402344 L 218.742188 224.828125 L 181.242188 224.828125 Z M 181.242188 199.402344 " clip-rule="nonzero"/></clipPath></defs><g fill="#000000" fill-opacity="1"><g transform="translate(177.669338, 197.178514)"><g><path d="M 15.609375 -8.1875 C 15.609375 -6.5 15.3125 -5.019531 14.71875 -3.75 C 14.125 -2.476562 13.269531 -1.492188 12.15625 -0.796875 C 11.039062 -0.109375 9.765625 0.234375 8.328125 0.234375 C 6.910156 0.234375 5.644531 -0.101562 4.53125 -0.78125 C 3.414062 -1.46875 2.550781 -2.441406 1.9375 -3.703125 C 1.332031 -4.972656 1.023438 -6.4375 1.015625 -8.09375 L 1.015625 -8.9375 C 1.015625 -10.625 1.316406 -12.109375 1.921875 -13.390625 C 2.535156 -14.671875 3.394531 -15.65625 4.5 -16.34375 C 5.613281 -17.03125 6.882812 -17.375 8.3125 -17.375 C 9.738281 -17.375 11.003906 -17.03125 12.109375 -16.34375 C 13.222656 -15.65625 14.082031 -14.671875 14.6875 -13.390625 C 15.300781 -12.109375 15.609375 -10.628906 15.609375 -8.953125 Z M 12.03125 -8.953125 C 12.03125 -10.753906 11.707031 -12.117188 11.0625 -13.046875 C 10.414062 -13.984375 9.5 -14.453125 8.3125 -14.453125 C 7.125 -14.453125 6.207031 -13.988281 5.5625 -13.0625 C 4.925781 -12.144531 4.601562 -10.796875 4.59375 -9.015625 L 4.59375 -8.1875 C 4.59375 -6.4375 4.910156 -5.078125 5.546875 -4.109375 C 6.191406 -3.140625 7.117188 -2.65625 8.328125 -2.65625 C 9.515625 -2.65625 10.425781 -3.117188 11.0625 -4.046875 C 11.695312 -4.984375 12.019531 -6.34375 12.03125 -8.125 Z M 12.03125 -8.953125 "/></g></g></g><g fill="#000000" fill-opacity="1"><g transform="translate(194.31208, 197.178514)"><g><path d="M 1.53125 0 L 1.53125 -17.140625 L 6.796875 -17.140625 C 8.304688 -17.140625 9.65625 -16.800781 10.84375 -16.125 C 12.03125 -15.445312 12.957031 -14.476562 13.625 -13.21875 C 14.289062 -11.96875 14.625 -10.546875 14.625 -8.953125 L 14.625 -8.171875 C 14.625 -6.578125 14.296875 -5.160156 13.640625 -3.921875 C 12.992188 -2.679688 12.070312 -1.71875 10.875 -1.03125 C 9.6875 -0.351562 8.34375 -0.0078125 6.84375 0 Z M 5.0625 -14.28125 L 5.0625 -2.84375 L 6.765625 -2.84375 C 8.148438 -2.84375 9.207031 -3.289062 9.9375 -4.1875 C 10.664062 -5.09375 11.035156 -6.382812 11.046875 -8.0625 L 11.046875 -8.96875 C 11.046875 -10.707031 10.6875 -12.023438 9.96875 -12.921875 C 9.25 -13.828125 8.191406 -14.28125 6.796875 -14.28125 Z M 5.0625 -14.28125 "/></g></g></g><g fill="#000000" fill-opacity="1"><g transform="translate(209.977917, 197.178514)"><g><path d="M 6.90625 -6.875 L 5.0625 -4.890625 L 5.0625 0 L 1.53125 0 L 1.53125 -17.140625 L 5.0625 -17.140625 L 5.0625 -9.375 L 6.609375 -11.5 L 10.984375 -17.140625 L 15.328125 -17.140625 L 9.234375 -9.53125 L 15.5 0 L 11.296875 0 Z M 6.90625 -6.875 "/></g></g></g><g clip-path="url(#f6edb54144)"><path fill="#f86901" d="M 186.113281 209.335938 L 186.113281 204.070312 C 194.152344 204.070312 200.691406 197.53125 200.691406 189.492188 C 200.691406 181.453125 194.152344 174.914062 186.113281 174.914062 L 186.113281 169.644531 C 192.167969 169.644531 197.804688 172.335938 201.664062 177.15625 C 203.976562 180.042969 205.425781 183.535156 205.832031 187.214844 C 206.511719 193.351562 204.425781 199.242188 200.144531 203.523438 C 196.398438 207.273438 191.414062 209.335938 186.113281 209.335938 Z M 186.113281 209.335938 " fill-opacity="1" fill-rule="nonzero"/></g><g clip-path="url(#b686dc3b9f)"><path fill="#f86901" d="M 186.113281 209.335938 L 186.113281 204.070312 C 194.152344 204.070312 200.691406 197.527344 200.691406 189.492188 C 200.691406 181.453125 194.152344 174.910156 186.113281 174.910156 L 186.113281 169.644531 C 192.167969 169.644531 197.808594 172.335938 201.667969 177.152344 C 203.976562 180.039062 205.425781 183.535156 205.832031 187.210938 C 206.511719 193.347656 204.429688 199.242188 200.148438 203.523438 C 196.398438 207.269531 191.414062 209.335938 186.113281 209.335938 Z M 186.113281 209.335938 " fill-opacity="1" fill-rule="nonzero"/></g><g clip-path="url(#9bcd601bc4)"><path fill="#f86901" d="M 181.078125 225.167969 L 181.078125 222.394531 C 200.316406 222.394531 215.972656 206.742188 215.972656 187.5 C 215.972656 168.261719 200.316406 152.605469 181.078125 152.605469 L 181.078125 149.832031 C 191.140625 149.832031 200.597656 153.75 207.710938 160.863281 C 214.828125 167.980469 218.746094 177.4375 218.746094 187.5 C 218.746094 197.5625 214.828125 207.019531 207.710938 214.136719 C 200.597656 221.25 191.136719 225.167969 181.078125 225.167969 Z M 181.078125 225.167969 " fill-opacity="1" fill-rule="nonzero"/></g><g clip-path="url(#2b29c39971)"><path fill="#f86901" d="M 181.0625 159 L 181.0625 167.089844 C 168.710938 167.089844 158.660156 177.140625 158.660156 189.492188 C 158.660156 201.839844 168.710938 211.890625 181.0625 211.890625 L 181.0625 219.984375 C 171.761719 219.984375 163.097656 215.847656 157.167969 208.445312 C 153.613281 204.007812 151.390625 198.640625 150.761719 192.992188 C 149.71875 183.5625 152.921875 174.507812 159.5 167.929688 C 165.261719 162.171875 172.917969 159 181.0625 159 Z M 181.0625 159 " fill-opacity="1" fill-rule="nonzero"/></g><g clip-path="url(#cddf035a43)"><path fill="#f86901" d="M 183.402344 169.648438 L 183.402344 174.914062 C 175.363281 174.914062 168.824219 181.453125 168.824219 189.492188 C 168.824219 197.53125 175.363281 204.070312 183.402344 204.070312 L 183.402344 209.339844 C 177.351562 209.339844 171.710938 206.648438 167.851562 201.828125 C 165.539062 198.941406 164.089844 195.449219 163.683594 191.769531 C 163.003906 185.632812 165.089844 179.742188 169.371094 175.460938 C 173.121094 171.710938 178.105469 169.648438 183.402344 169.648438 Z M 183.402344 169.648438 " fill-opacity="1" fill-rule="nonzero"/></g><g clip-path="url(#6d31f6fdce)"><path fill="#f86901" d="M 181.074219 225.171875 L 181.074219 222.394531 C 200.3125 222.394531 215.96875 206.746094 215.96875 187.503906 C 215.96875 168.265625 200.3125 152.609375 181.074219 152.609375 L 181.074219 149.835938 C 191.136719 149.835938 200.59375 153.753906 207.710938 160.867188 C 214.824219 167.980469 218.742188 177.441406 218.742188 187.503906 C 218.742188 197.566406 214.824219 207.023438 207.710938 214.140625 C 200.59375 221.253906 191.132812 225.171875 181.074219 225.171875 Z M 181.074219 225.171875 " fill-opacity="1" fill-rule="nonzero"/></g></svg>